<?xml version="1.0" encoding="iso-8859-1"?>
<!-- Generator: Adobe Illustrator 19.0.0, SVG Export Plug-In . SVG Version: 6.00 Build 0)  -->
<svg xmlns="http://www.w3.org/2000/svg" xmlns:xlink="http://www.w3.org/1999/xlink" version="1.1" id="Capa_1" x="0px" y="0px" viewBox="0 0 375.467 375.467" style="enable-background:new 0 0 375.467 375.467;" xml:space="preserve" width="512px" height="512px">
<g>
	<g>
		<path d="M34.133,143.36c-3.773,0-6.827,3.057-6.827,6.827v68.267c0,3.77,3.053,6.827,6.827,6.827s6.827-3.057,6.827-6.827v-68.267    C40.96,146.417,37.907,143.36,34.133,143.36z" fill="#f05f40"/>
	</g>
</g>
<g>
	<g>
		<path d="M54.613,122.88c-3.773,0-6.827,3.057-6.827,6.827v109.227c0,3.77,3.053,6.827,6.827,6.827s6.827-3.057,6.827-6.827    V129.707C61.44,125.937,58.387,122.88,54.613,122.88z" fill="#f05f40"/>
	</g>
</g>
<g>
	<g>
		<path d="M95.573,143.36c-3.773,0-6.827,3.057-6.827,6.827v68.267c0,3.77,3.053,6.827,6.827,6.827s6.827-3.057,6.827-6.827v-68.267    C102.4,146.417,99.347,143.36,95.573,143.36z" fill="#f05f40"/>
	</g>
</g>
<g>
	<g>
		<path d="M116.053,122.88c-3.773,0-6.827,3.057-6.827,6.827v109.227c0,3.77,3.053,6.827,6.827,6.827s6.827-3.057,6.827-6.827    V129.707C122.88,125.937,119.827,122.88,116.053,122.88z" fill="#f05f40"/>
	</g>
</g>
<g>
	<g>
		<path d="M136.533,116.053c-3.773,0-6.827,3.057-6.827,6.827v122.88c0,3.77,3.053,6.827,6.827,6.827s6.827-3.057,6.827-6.827    V122.88C143.36,119.11,140.307,116.053,136.533,116.053z" fill="#f05f40"/>
	</g>
</g>
<g>
	<g>
		<path d="M157.013,122.88c-3.773,0-6.827,3.057-6.827,6.827v109.227c0,3.77,3.053,6.827,6.827,6.827s6.827-3.057,6.827-6.827    V129.707C163.84,125.937,160.787,122.88,157.013,122.88z" fill="#f05f40"/>
	</g>
</g>
<g>
	<g>
		<path d="M75.093,75.093c-3.773,0-6.827,3.057-6.827,6.827v211.627c0,3.77,3.053,6.827,6.827,6.827s6.827-3.057,6.827-6.827V81.92    C81.92,78.15,78.867,75.093,75.093,75.093z" fill="#f05f40"/>
	</g>
</g>
<g>
	<g>
		<path d="M259.413,143.36c-3.773,0-6.827,3.057-6.827,6.827v68.267c0,3.77,3.053,6.827,6.827,6.827s6.827-3.057,6.827-6.827    v-68.267C266.24,146.417,263.187,143.36,259.413,143.36z" fill="#f05f40"/>
	</g>
</g>
<g>
	<g>
		<path d="M279.893,122.88c-3.773,0-6.827,3.057-6.827,6.827v109.227c0,3.77,3.053,6.827,6.827,6.827s6.827-3.057,6.827-6.827    V129.707C286.72,125.937,283.667,122.88,279.893,122.88z" fill="#f05f40"/>
	</g>
</g>
<g>
	<g>
		<path d="M320.853,143.36c-3.773,0-6.827,3.057-6.827,6.827v68.267c0,3.77,3.053,6.827,6.827,6.827s6.827-3.057,6.827-6.827    v-68.267C327.68,146.417,324.627,143.36,320.853,143.36z" fill="#f05f40"/>
	</g>
</g>
<g>
	<g>
		<path d="M341.333,122.88c-3.773,0-6.827,3.057-6.827,6.827v109.227c0,3.77,3.053,6.827,6.827,6.827s6.827-3.057,6.827-6.827    V129.707C348.16,125.937,345.107,122.88,341.333,122.88z" fill="#f05f40"/>
	</g>
</g>
<g>
	<g>
		<path d="M300.373,75.093c-3.773,0-6.827,3.057-6.827,6.827v211.627c0,3.77,3.053,6.827,6.827,6.827s6.827-3.057,6.827-6.827V81.92    C307.2,78.15,304.147,75.093,300.373,75.093z" fill="#f05f40"/>
	</g>
</g>
<g>
	<g>
		<path d="M177.493,143.36c-3.773,0-6.827,3.057-6.827,6.827v68.267c0,3.77,3.053,6.827,6.827,6.827s6.827-3.057,6.827-6.827    v-68.267C184.32,146.417,181.267,143.36,177.493,143.36z" fill="#f05f40"/>
	</g>
</g>
<g>
	<g>
		<path d="M197.973,122.88c-3.773,0-6.827,3.057-6.827,6.827v109.227c0,3.77,3.053,6.827,6.827,6.827s6.827-3.057,6.827-6.827    V129.707C204.8,125.937,201.747,122.88,197.973,122.88z" fill="#f05f40"/>
	</g>
</g>
<g>
	<g>
		<path d="M218.453,75.093c-3.773,0-6.827,3.057-6.827,6.827v211.627c0,3.77,3.053,6.827,6.827,6.827s6.827-3.057,6.827-6.827V81.92    C225.28,78.15,222.227,75.093,218.453,75.093z" fill="#f05f40"/>
	</g>
</g>
<g>
	<g>
		<path d="M238.933,54.613c-3.773,0-6.827,3.057-6.827,6.827v252.587c0,3.77,3.053,6.827,6.827,6.827s6.827-3.057,6.827-6.827V61.44    C245.76,57.67,242.707,54.613,238.933,54.613z" fill="#f05f40"/>
	</g>
</g>
<g>
	<g>
		<path d="M368.64,334.507H6.827c-3.773,0-6.827,3.057-6.827,6.827v27.307c0,3.77,3.053,6.827,6.827,6.827H368.64    c3.773,0,6.827-3.057,6.827-6.827v-27.307C375.467,337.563,372.413,334.507,368.64,334.507z M361.813,361.813H13.653V348.16    h348.16V361.813z" fill="#f05f40"/>
	</g>
</g>
<g>
	<g>
		<path d="M368.64,0H6.827C3.053,0,0,3.057,0,6.827v27.307c0,3.77,3.053,6.827,6.827,6.827H368.64c3.773,0,6.827-3.057,6.827-6.827    V6.827C375.467,3.057,372.413,0,368.64,0z M361.813,27.307H13.653V13.653h348.16V27.307z" fill="#f05f40"/>
	</g>
</g>
<g>
</g>
<g>
</g>
<g>
</g>
<g>
</g>
<g>
</g>
<g>
</g>
<g>
</g>
<g>
</g>
<g>
</g>
<g>
</g>
<g>
</g>
<g>
</g>
<g>
</g>
<g>
</g>
<g>
</g>
</svg>
