<?xml version="1.0" encoding="utf-8"?>
<!-- Generator: Adobe Illustrator 16.0.0, SVG Export Plug-In . SVG Version: 6.00 Build 0)  -->
<!DOCTYPE svg PUBLIC "-//W3C//DTD SVG 1.1//EN" "http://www.w3.org/Graphics/SVG/1.1/DTD/svg11.dtd">
<svg version="1.1" id="Layer_1" xmlns="http://www.w3.org/2000/svg" xmlns:xlink="http://www.w3.org/1999/xlink" x="0px" y="0px"
	 width="512px" height="512px" viewBox="0 0 512 512" enable-background="new 0 0 512 512" xml:space="preserve">
<path fill="#F05F40" d="M0,512h512c0-10.629,0-497.508,0-512H0V512z M482,482H30v-90h452V482z M30,30h452v332H30V30z M121,61H91v150
	H61v90h30v30h30v-30h30v-90h-30V61z M121,271H91v-30h30V271z M211,61h-30v30h-30v90h30v150h30V181h30V91h-30V61z M211,151h-30v-30
	h30V151z M421,61h-30v150h-30v90h30v30h30v-30h30v-90h-30V61z M421,271h-30v-30h30V271z M61,422h60v30H61V422z M151,422h60v30h-60
	V422z M241,422h60v30h-60V422z M361,415.781l21.215,21.215L361,458.207l-21.211-21.211L361,415.781z M421,415.781l21.215,21.215
	L421,458.207l-21.215-21.211L421,415.781z M361,181V91h-30V61h-30v30h-30v90h30v150h30V181H361z M301,121h30v30h-30V121z"/>
</svg>
